<?xml version="1.0" encoding="utf-8"?>
<!DOCTYPE svg PUBLIC "-//W3C//DTD SVG 20010904//EN" "http://www.w3.org/TR/2001/REC-SVG-20010904/DTD/svg10.dtd">
<svg version="1.0" xmlns="http://www.w3.org/2000/svg" width="1200px" height="199px" viewBox="0 0 1200 199" preserveAspectRatio="xMidYMid meet">
 <g fill="#ffffff">
  <path d="M50.4 196 c-23.3 -3.5 -42.5 -21.2 -47.9 -44.1 -2 -8.8 -1.9 -16.1 0.6 -24.9 4.6 -16.9 15.7 -30.4 30.5 -37.5 l8.2 -4 0.6 -6.5 c1.4 -14.4 6.3 -24.7 16.6 -35.1 12.4 -12.5 25.7 -17.6 43.2 -16.6 l9.8 0.6 3.7 -4 c12.7 -13.7 29.5 -21.1 48.3 -21.1 18.3 -0.1 32.6 5.8 45.6 18.7 12.9 12.8 19.4 28.3 19.4 46 l0 8.2 6.8 5.1 c11 8.2 18.1 18 22.8 31.7 2.4 6.9 2.8 9.6 2.8 19.5 0 9.9 -0.4 12.6 -2.8 19.5 -7.5 21.7 -23 36.6 -45.1 43.1 -5.5 1.6 -12.6 1.8 -82 2 -41.8 0.1 -78.3 -0.1 -81.1 -0.6z m126.5 -35.8 c4.9 -5.1 10.5 -16 13.2 -25.7 5.7 -20.2 -0.1 -47.4 -13 -61.4 -4.6 -5 -8.8 -5.5 -12.6 -1.6 -3.6 3.5 -3.2 7.1 1.6 14.6 7.2 11.1 9.3 17.8 9.3 29.9 0 12.4 -2.1 19.5 -9 30.6 -5 8.2 -5.5 11.4 -1.9 14.9 3.7 3.8 8 3.4 12.4 -1.3z m-55.5 -8.8 c0.3 -0.9 0.6 -16.7 0.6 -35.3 0 -24.9 -0.3 -34 -1.2 -34.9 -2.9 -2.9 -5.9 -1.2 -15.6 8.1 -10.7 10.3 -14.4 12.2 -22.3 11.5 -8.4 -0.8 -8.9 0 -8.9 15.6 0 11 0.3 13.6 1.6 14.7 0.9 0.8 5.3 1.5 10.4 1.9 l8.9 0.5 9.9 9.8 c8.1 8 10.5 9.7 13 9.7 1.8 0 3.2 -0.6 3.6 -1.6z m29 -8.5 c2 -1.7 5 -6.1 6.8 -9.7 3.1 -6.2 3.3 -7.4 3.3 -16.7 0 -9.3 -0.2 -10.5 -3.3 -16.7 -3.5 -7.1 -9 -12.8 -12.3 -12.8 -3.4 0 -7.8 2.9 -8.5 5.6 -0.7 2.6 -0.1 4.1 5.2 13.4 2.2 3.9 2.5 5.4 2.2 11.6 -0.3 6.4 -0.8 7.8 -4.1 12.6 -4.3 6.4 -4.7 9.9 -1.2 13.3 3.4 3.5 7.6 3.3 11.9 -0.6z"/>
  <path d="M590 189.1 c-10.1 -3.2 -16 -8.3 -20.9 -18 -4.5 -8.7 -5.1 -15 -5.1 -55.3 l0 -37.8 -11 0 -11 0 0 -9.5 0 -9.5 23 0 22.9 0 0.3 46.3 c0.3 41.4 0.5 46.7 2.1 50.7 3.8 9.6 10.3 13.4 22.8 13.4 8 0 9.3 -0.3 16.2 -3.7 9.2 -4.5 15.3 -11 20.1 -21.1 5 -10.4 5.6 -15 5.6 -42.1 l0 -24.5 -10.5 0 -10.5 0 0 -9.5 0 -9.5 23 0 23 0 0 54.3 c0 40.9 0.3 54.6 1.2 55.5 0.7 0.7 4.4 1.2 9.5 1.2 l8.3 0 0 9 0 9 -16.7 0 c-15.1 0 -17.1 -0.2 -20.1 -2 -4.8 -2.9 -6.5 -7.8 -6 -17.2 0.2 -4.3 0.1 -7.8 -0.2 -7.8 -0.3 0 -1.6 1.9 -2.9 4.2 -6.1 10.7 -17.9 19.9 -30.5 23.7 -8.8 2.7 -24.5 2.8 -32.6 0.2z"/>
  <path d="M777.7 188.9 c-3.2 -1.1 -7.7 -3.1 -10 -4.6 -5 -3.1 -13.3 -11.5 -14.2 -14.3 -1.5 -4.7 -2.3 -1.3 -1.8 8 l0.6 10 -11.7 0 -11.6 0 0 -81 0 -81 -11 0 -11 0 0 -9 0 -9 23 0 23.1 0 -0.3 35.5 c-0.2 19.5 -0.1 35.5 0.2 35.4 0.3 0 1.9 -1.9 3.5 -4.2 8.2 -11.2 23.1 -18.2 39 -18.1 28.5 0.1 48.8 18.3 55 49.3 2.1 10.3 1.6 31.2 -1 40.6 -5.9 21.5 -21.6 37.9 -41.2 43 -8.4 2.2 -23.4 1.9 -30.6 -0.6z m19.5 -19 c14.1 -3 23.4 -12.7 28.4 -29.4 2.8 -9.6 2.4 -25.9 -1 -35.9 -4.3 -12.6 -10 -19.6 -20 -24.2 -13.3 -6.2 -30.4 -2.8 -40.3 7.9 -8.3 9 -11.7 19.1 -11.7 35.2 -0.1 24.4 10.3 41.3 28.3 46.1 5.9 1.6 9.7 1.7 16.3 0.3z"/>
  <path d="M901 189.4 c-10.9 -2.9 -19 -9.2 -24.1 -18.6 -3.3 -6.1 -3.4 -6.6 -3.4 -17.8 0 -10.5 0.2 -11.9 2.7 -16.5 8.8 -16.8 29.5 -25.2 66.7 -27 l14.4 -0.7 -0.6 -7.2 c-1.4 -16.7 -9 -24.2 -25.6 -25.3 -9.7 -0.7 -21.4 2.1 -32.3 7.6 l-7.7 3.9 -4.7 -8.1 c-5.4 -9.4 -5.9 -8.5 7.1 -14.8 12.1 -5.9 21.8 -8.1 36 -8.2 28.8 -0.2 44.9 11 50 34.8 1.1 5.4 1.5 14.9 1.5 41.2 0 29.7 0.2 34.4 1.6 35.7 1.1 1.2 3.6 1.6 9.5 1.6 l7.9 0 0 9 0 9 -16.4 0 c-15.3 0 -16.5 -0.1 -19.7 -2.3 -4.4 -3 -6 -7.5 -5.4 -15.7 0.4 -5.4 0.3 -6.2 -0.7 -4.6 -12.2 18.4 -24.2 25.7 -42.6 25.5 -4.8 0 -11.2 -0.7 -14.2 -1.5z m33.9 -19.8 c13.1 -6.7 22.1 -22.8 22.1 -39.6 l0 -5 -10.4 0 c-18.3 0 -34.4 3.9 -42 10.2 -12.7 10.5 -8.7 30.5 7.3 36.5 5.7 2.1 16.5 1.2 23 -2.1z"/>
  <path d="M1175.6 187.4 c-16.7 -4 -28 -15.6 -31.5 -32.2 -0.7 -3.3 -1.1 -18.7 -1.1 -41.2 l0 -36 -11 0 -11 0 0 -9.5 0 -9.5 11 0 11 0 0 -17.5 0 -17.5 12 0 12 0 0 17.5 0 17.5 15.5 0 15.5 0 0 9.5 0 9.5 -15.6 0 -15.5 0 0.3 36.3 0.3 36.2 2.7 5.2 c4.6 8.7 13 13.3 24.5 13.3 l5.3 0 0 10 0 10 -9.2 -0.1 c-5.1 0 -11.9 -0.7 -15.2 -1.5z"/>
  <path d="M338 178.5 l0 -9.5 11 0 11 0 0 -71 0 -71 -11 0 -11 0 0 -9.5 0 -9.5 23.7 0.2 23.6 0.3 44.8 65 c24.7 35.8 46.1 67.8 47.6 71.2 1.5 3.4 3.2 6.3 3.7 6.3 0.5 0 0.6 -2.1 0.2 -4.6 -0.3 -2.6 -0.6 -30.5 -0.6 -62 l0 -57.4 -11.5 0 -11.5 0 0 -9.5 0 -9.5 35.5 0 35.5 0 0 9.5 0 9.5 -11.5 0 -11.5 0 0 80.5 0 80.6 -12.7 -0.3 -12.6 -0.3 -44.5 -64.5 c-24.4 -35.5 -45.8 -67.3 -47.5 -70.7 -3.1 -6.2 -5.5 -8.5 -4.3 -4.1 0.3 1.3 0.6 29 0.6 61.6 l0 59.2 12 0 12 0 0 9.5 0 9.5 -35.5 0 -35.5 0 0 -9.5z"/>
  <path d="M1020 179 l0 -9 10 0 10 0 0 -43.2 c0 -32.9 -0.3 -43.9 -1.3 -45.8 -1.2 -2.4 -1.7 -2.5 -11 -2.8 l-9.7 -0.3 0 -9.5 0 -9.6 17.3 0.4 c18.7 0.4 21.3 1 25.1 6.1 1.9 2.5 2.1 4.2 2.1 14.8 0 6.5 0.3 11.9 0.8 11.9 0.4 0 0.7 -0.6 0.7 -1.2 0 -2.3 5.9 -13 9.7 -17.6 7.8 -9.5 19.5 -15.2 31.4 -15.2 l5.9 0 0 12.1 0 12.1 -3.5 -0.6 c-4.5 -0.9 -14.8 1 -19.7 3.5 -9.2 4.7 -15.9 13.4 -20.4 26.4 -2.7 7.8 -2.8 8.7 -3.2 33.3 l-0.4 25.2 9.6 0 9.6 0 0 9 0 9 -31.5 0 -31.5 0 0 -9z"/>
 </g>
</svg>